<svg xmlns="http://www.w3.org/2000/svg" viewBox="0 0 512 512" role="img" aria-labelledby="title desc">
  <title id="title">tag2dir</title>
  <desc id="desc">A tag-to-folder app icon showing tags moving into a directory.</desc>
  <defs>
    <linearGradient id="bg" x1="0" y1="0" x2="1" y2="1">
      <stop offset="0%" stop-color="#1f2937"/>
      <stop offset="100%" stop-color="#050816"/>
    </linearGradient>
    <linearGradient id="folderBack" x1="0" y1="0" x2="1" y2="1">
      <stop offset="0%" stop-color="#FCD34D"/>
      <stop offset="100%" stop-color="#D97706"/>
    </linearGradient>
    <linearGradient id="folderFront" x1="0" y1="0" x2="1" y2="1">
      <stop offset="0%" stop-color="#FDE68A"/>
      <stop offset="100%" stop-color="#F59E0B"/>
    </linearGradient>
    <linearGradient id="tagPink" x1="0" y1="0" x2="1" y2="1">
      <stop offset="0%" stop-color="#FB7185"/>
      <stop offset="100%" stop-color="#BE123C"/>
    </linearGradient>
    <linearGradient id="tagBlue" x1="0" y1="0" x2="1" y2="1">
      <stop offset="0%" stop-color="#60A5FA"/>
      <stop offset="100%" stop-color="#1D4ED8"/>
    </linearGradient>
    <filter id="shadow" x="-30%" y="-30%" width="160%" height="160%">
      <feDropShadow dx="0" dy="10" stdDeviation="12" flood-color="#000" flood-opacity="0.45"/>
    </filter>
    <filter id="shadowStrong" x="-30%" y="-30%" width="160%" height="160%">
      <feDropShadow dx="0" dy="18" stdDeviation="18" flood-color="#000" flood-opacity="0.55"/>
    </filter>
  </defs>

  <g transform="translate(256 256) scale(1.2) translate(-256 -256)">
    <g filter="url(#shadow)">
      <path d="M110 148c0-17 13-30 30-30h84l30 30h148c17 0 30 13 30 30v176c0 17-13 30-30 30H140c-17 0-30-13-30-30V148z" fill="url(#folderBack)"/>
      <path d="M92 204c0-18 14-32 32-32h256c18 0 32 14 32 32v138c0 18-14 32-32 32H124c-18 0-32-14-32-32V204z" fill="url(#folderFront)" filter="url(#shadowStrong)"/>
    </g>

    <g transform="translate(116 62) rotate(-14 88 120)" filter="url(#shadow)">
      <path d="M64 28l56 56v170H8V84l56-56z" fill="url(#tagPink)"/>
      <circle cx="64" cy="88" r="13" fill="#5b1730"/>
    </g>

    <g transform="translate(230 42) rotate(10 88 128)" filter="url(#shadow)">
      <path d="M64 28l56 56v182H8V84l56-56z" fill="url(#tagBlue)"/>
      <circle cx="64" cy="88" r="13" fill="#173166"/>
    </g>
  </g>
</svg>
